<?xml version="1.0" standalone="no"?>
<!DOCTYPE svg PUBLIC "-//W3C//DTD SVG 20010904//EN"
 "http://www.w3.org/TR/2001/REC-SVG-20010904/DTD/svg10.dtd">
<svg version="1.0" xmlns="http://www.w3.org/2000/svg"
 width="3062.000000pt" height="3221.000000pt" viewBox="0 0 3062.000000 3221.000000"
 preserveAspectRatio="xMidYMid meet">
<metadata>
Created by potrace 1.16, written by Peter Selinger 2001-2019
</metadata>
<g transform="translate(0.000000,3221.000000) scale(0.100000,-0.100000)"
fill="#000000" stroke="none">
<path d="M7570 31584 c-184 -27 -316 -67 -471 -144 -176 -88 -277 -164 -383
-290 -212 -250 -348 -580 -413 -1000 -24 -162 -25 -520 0 -680 86 -553 340
-960 785 -1258 500 -336 1210 -465 1907 -346 186 32 379 81 510 129 395 146
521 177 715 178 196 1 304 -32 575 -174 83 -43 182 -91 222 -108 84 -34 223
-71 271 -71 33 0 33 -1 -46 -59 -334 -248 -675 -626 -925 -1027 -223 -358
-381 -705 -439 -966 -20 -89 -23 -130 -23 -298 1 -171 4 -205 24 -280 91 -338
322 -552 711 -660 132 -36 250 -51 448 -57 105 -3 192 -8 192 -11 0 -19 -103
-347 -152 -485 -43 -121 -58 -175 -53 -196 8 -36 59 -85 109 -106 l39 -16 -7
-77 c-47 -551 18 -907 223 -1212 l50 -75 -2872 -5 -2872 -6 -80 -23 c-323 -93
-553 -319 -658 -646 l-22 -70 -3 -1837 -2 -1837 -103 -54 c-388 -207 -852
-346 -1372 -411 -277 -35 -405 -41 -820 -41 -365 1 -629 10 -810 31 l-50 6
-18 -43 c-25 -58 -47 -177 -47 -253 0 -75 27 -241 45 -276 12 -23 36 -32 232
-83 785 -204 1357 -290 1933 -291 359 0 587 22 845 80 61 14 122 27 138 31
l27 6 -2 -1188 -3 -1188 -185 -135 c-383 -278 -616 -470 -844 -692 -187 -183
-289 -301 -398 -464 -170 -254 -270 -526 -309 -840 -78 -640 366 -1494 1538
-2954 l203 -254 0 -685 0 -686 -29 -51 c-75 -131 -95 -285 -52 -396 30 -79 35
-84 58 -71 19 9 21 6 31 -57 52 -311 269 -583 559 -702 165 -67 132 -64 1056
-70 l838 -5 -40 -80 c-78 -155 -172 -248 -370 -365 -162 -95 -201 -139 -201
-226 l0 -36 463 7 c494 6 540 9 574 31 36 23 50 61 103 269 54 215 92 307 151
366 l39 39 1434 0 1433 0 13 -47 c90 -328 363 -586 710 -669 71 -18 246 -19
3745 -22 2019 -2 4022 0 4453 4 l782 6 0 69 0 69 -792 0 c-855 1 -874 2 -1012
54 -96 36 -178 89 -258 164 -170 161 -250 343 -250 572 -1 353 215 644 567
761 l70 24 838 3 837 3 0 74 0 75 -762 1 -763 0 75 23 c203 61 385 195 507
376 l43 65 -97 6 c-54 3 -245 8 -425 10 l-327 4 -52 -79 c-110 -167 -290 -308
-477 -372 -96 -33 -99 -34 -272 -34 l-175 1 85 28 c47 15 117 44 156 65 83 43
214 146 265 208 49 59 130 180 124 186 -4 5 -2537 51 -2815 52 l-145 0 -32
-63 c-81 -155 -247 -317 -406 -395 -151 -73 -162 -76 -372 -79 l-190 -3 87 29
c234 77 412 223 531 434 l47 82 -252 6 c-139 4 -393 9 -564 12 l-311 6 -27
-57 c-107 -217 -290 -383 -531 -479 l-70 -28 -885 -5 -885 -6 -95 -26 c-52
-14 -122 -38 -154 -52 -88 -39 -217 -128 -287 -199 -107 -106 -217 -298 -244
-424 l-7 -33 -1334 0 -1334 0 0 38 c0 53 -24 135 -54 186 -34 58 -104 119
-193 168 l-72 39 20 34 20 34 -56 173 c-168 516 -335 1117 -434 1563 -243
1095 -263 1870 -65 2488 82 253 182 453 445 893 204 340 359 643 433 840 133
361 214 778 239 1233 2 43 4 45 45 59 23 7 42 19 42 26 0 49 31 460 36 467 3
5 34 9 69 9 154 0 408 48 573 109 735 271 947 917 625 1906 -167 514 -487
1130 -806 1549 -115 150 -309 347 -405 410 -135 89 -511 205 -797 246 -82 12
-160 24 -172 26 -24 5 -39 43 -74 189 -30 130 -15 222 52 316 20 28 26 30 59
25 87 -14 134 18 182 124 17 38 51 87 84 122 32 33 68 85 86 124 29 62 32 78
38 210 l6 143 47 93 c128 255 60 522 -162 630 -92 46 -214 51 -313 13 -11 -4
-24 8 -41 37 -86 145 -244 199 -412 139 l-59 -21 -81 40 c-188 95 -354 72
-488 -69 -67 -70 -102 -129 -121 -206 -39 -147 4 -288 126 -421 23 -25 53 -50
65 -55 20 -7 23 -16 23 -63 l0 -54 79 -11 c176 -26 346 23 608 174 l61 35 47
-85 c25 -46 62 -105 81 -131 20 -25 32 -50 27 -54 -4 -4 -229 -70 -499 -146
l-492 -138 -6 -50 c-9 -81 -7 -277 5 -363 26 -195 80 -332 151 -383 22 -17 49
-30 58 -30 37 0 42 -24 46 -227 3 -152 1 -189 -7 -158 -6 22 -9 81 -6 132 l4
92 -31 -6 c-218 -38 -456 -119 -671 -227 -200 -101 -347 -198 -690 -454 -148
-111 -273 -202 -278 -202 -4 0 -6 692 -5 1538 l3 1537 22 72 c91 292 287 494
573 590 l85 28 2949 3 2948 2 113 -69 c171 -106 349 -195 715 -361 377 -171
518 -241 671 -333 465 -280 639 -553 699 -1097 16 -137 16 -563 1 -760 -23
-305 -80 -738 -147 -1120 -14 -80 -56 -316 -94 -525 -38 -209 -75 -420 -82
-469 l-12 -88 49 -45 c108 -97 226 -159 359 -188 87 -19 252 -17 341 5 l50 12
104 327 c488 1524 665 2232 722 2889 18 214 7 546 -25 724 -52 295 -135 564
-255 835 -38 84 -65 153 -60 153 5 0 57 -16 116 -36 131 -43 279 -118 365
-183 298 -226 542 -746 748 -1595 86 -353 154 -705 279 -1446 39 -228 76 -443
82 -477 l12 -62 66 -27 c54 -21 88 -27 181 -31 136 -6 207 8 318 63 69 35 191
135 212 174 15 28 -21 1074 -56 1630 -41 665 -112 1196 -215 1620 -25 102
-115 391 -144 463 -7 16 194 17 4311 15 l4319 -3 95 -32 c277 -94 473 -299
563 -586 l22 -72 3 -1779 2 -1779 123 -121 c68 -67 151 -138 185 -159 l62 -37
-3 2112 c-3 2388 6 2139 -86 2333 -117 246 -323 417 -596 496 l-80 24 -4570 3
-4570 3 -74 110 c-328 490 -770 875 -1346 1171 l-190 97 351 1 351 0 18 48
c10 26 202 515 428 1087 225 572 412 1049 415 1059 5 19 -18 19 -1161 12
-1142 -7 -1167 -7 -1167 11 0 32 31 126 50 153 10 14 56 48 103 75 l84 49 -76
45 c-232 135 -435 352 -626 670 -46 76 -147 264 -224 419 -78 155 -168 321
-201 369 -149 222 -332 384 -543 483 -75 35 -224 80 -269 80 -10 0 -29 -22
-47 -52 -61 -107 -137 -158 -236 -158 l-55 0 0 -37 c0 -21 5 -74 11 -118 11
-76 10 -84 -10 -123 -53 -104 -155 -162 -261 -147 -102 14 -210 87 -255 174
-22 43 -21 64 8 171 28 101 42 184 52 291 l5 67 -43 52 c-26 32 -66 64 -102
83 -71 38 -119 97 -141 174 -25 85 -7 175 38 189 28 9 76 -24 104 -71 14 -25
32 -45 39 -45 7 0 21 20 30 45 13 34 28 51 62 71 156 91 397 307 487 435 l16
23 170 -68 c94 -38 174 -65 177 -62 4 4 -4 30 -16 59 -13 28 -28 77 -33 107
-28 167 -42 229 -64 296 -119 365 -394 633 -759 739 -139 40 -261 55 -460 55
-193 0 -325 -12 -635 -60 -463 -71 -598 -68 -830 15 -241 86 -452 222 -915
590 -512 406 -752 550 -1040 624 -134 35 -319 50 -425 35z m3782 -5465 c19
-156 22 -235 22 -526 1 -188 -1 -344 -4 -347 -10 -10 -123 25 -196 59 -93 45
-165 110 -195 177 -45 102 -25 252 56 423 72 150 272 438 287 412 4 -8 17 -97
30 -198z m2275 -650 c1 -13 -24 -87 -55 -164 l-57 -140 -69 -52 c-38 -28 -110
-74 -160 -102 -107 -59 -412 -193 -504 -221 -72 -22 -170 -26 -238 -9 -40 10
-45 15 -40 33 25 84 15 297 -19 426 l-13 50 78 59 c43 32 100 66 127 74 33 11
126 19 293 26 135 6 297 18 360 27 262 36 293 35 297 -7z m1464 -588 c80 -81
-11 -238 -145 -249 -45 -4 -56 -1 -84 23 -28 23 -32 33 -32 74 0 62 27 109 84
149 66 44 134 46 177 3z m-7148 -7858 c441 -191 805 -349 808 -352 9 -8 -126
-316 -137 -314 -32 6 -1629 704 -1646 719 -33 31 -51 75 -51 130 0 106 88 183
191 168 19 -3 394 -161 835 -351z m-1872 -478 c-24 -686 -102 -1124 -266
-1503 l-56 -127 46 -40 45 -40 -198 -137 c-108 -75 -230 -159 -270 -188 l-72
-51 2 1121 3 1120 115 53 c197 91 399 215 565 345 l80 63 9 -148 c5 -92 4
-270 -3 -468z m1759 70 c443 -192 806 -349 808 -351 6 -4 -130 -314 -138 -314
-23 0 -1627 703 -1647 722 -42 39 -56 76 -51 138 7 100 81 165 178 157 31 -3
295 -112 850 -352z m1066 -171 c174 -320 193 -525 56 -629 -44 -34 -146 -74
-158 -63 -3 4 2 102 10 220 9 117 18 276 21 353 6 139 12 205 20 205 2 0 25
-39 51 -86z m-2995 -4125 c-137 -671 -165 -1243 -90 -1813 117 -885 473 -1777
1431 -3581 l143 -270 43 -3 42 -3 0 -55 0 -54 -704 0 c-749 0 -773 1 -910 49
-118 41 -243 126 -334 225 -112 123 -204 318 -206 437 l-1 56 490 407 c270
223 509 430 533 459 47 57 82 152 82 221 0 63 -27 154 -63 215 -50 82 -122
142 -259 212 -174 88 -198 104 -198 134 0 14 -38 91 -84 172 -126 223 -301
545 -414 764 l-102 196 0 1044 0 1045 148 81 c210 117 486 262 490 259 1 -2
-15 -91 -37 -197z m-971 -901 c0 -243 -2 -439 -5 -436 -10 10 -56 175 -76 273
-40 195 -36 363 11 488 20 53 56 117 65 117 3 0 5 -199 5 -442z m440 -3036 c0
-109 -18 -203 -53 -282 -15 -33 -15 -24 -16 178 l-1 212 35 0 35 0 0 -108z"/>
<path d="M24690 20854 c-127 -27 -249 -80 -332 -146 l-36 -28 -79 26 c-105 35
-252 43 -343 20 -208 -53 -355 -239 -561 -706 -39 -91 -86 -187 -104 -215 -49
-76 -136 -152 -218 -190 -125 -58 -200 -67 -760 -95 -114 -6 -245 -17 -290
-26 -396 -73 -642 -305 -724 -684 -28 -130 -25 -416 6 -570 107 -540 423 -979
959 -1334 123 -81 300 -182 306 -175 6 7 146 319 261 585 210 482 320 693 457
875 202 269 480 447 856 547 119 33 119 33 102 -27 -19 -68 65 -177 179 -229
43 -20 72 -26 126 -26 114 0 188 49 239 158 23 48 25 62 17 94 -5 20 -13 62
-16 93 l-7 56 39 6 c58 10 219 8 331 -3 226 -23 380 -116 466 -279 119 -229
337 -1191 422 -1869 l18 -144 81 -49 c44 -27 113 -66 152 -87 l73 -37 0 -1112
c0 -612 -2 -1113 -4 -1113 -13 0 -255 408 -324 546 l-41 81 31 23 c16 12 37
38 45 58 l15 36 -38 34 c-50 42 -184 107 -252 121 -119 25 -279 8 -470 -49
-56 -17 -231 -80 -388 -140 -482 -186 -669 -242 -941 -281 -126 -18 -177 -21
-348 -16 -116 3 -235 12 -283 21 -78 14 -272 63 -279 70 -2 1 30 25 70 51 96
66 266 238 349 355 164 232 297 515 391 831 l34 116 -128 35 -129 35 -11 -41
c-117 -457 -296 -887 -526 -1269 l-65 -108 32 -65 c58 -118 169 -214 292 -253
41 -14 41 -11 53 -206 12 -187 49 -390 150 -825 76 -327 83 -370 95 -559 24
-422 -71 -1025 -230 -1451 -41 -109 -47 -153 -26 -185 24 -37 108 -75 211 -96
71 -15 339 -38 448 -39 43 0 8 -886 -64 -1600 -78 -782 -225 -1510 -380 -1886
l-30 -72 -87 -36 c-112 -47 -217 -119 -265 -182 -45 -60 -89 -162 -122 -287
l-25 -93 54 -130 c29 -71 56 -139 60 -152 l7 -22 -1255 0 -1256 0 0 -200 0
-200 1384 0 1384 0 26 -78 c14 -42 53 -183 86 -313 66 -263 85 -320 132 -398
59 -97 98 -105 558 -117 233 -6 272 -5 323 10 46 13 62 24 77 50 l20 32 74
-14 c63 -12 80 -13 117 -1 31 10 45 20 47 35 2 13 -35 74 -102 168 -58 81
-122 175 -142 209 -21 34 -43 69 -50 77 -11 14 -110 257 -128 317 l-7 22 718
4 c711 3 719 3 798 26 322 91 553 319 657 646 l23 70 5 1495 5 1495 51 100
c156 305 266 678 310 1050 9 77 18 238 20 358 l3 218 96 64 c241 161 429 358
488 509 27 71 27 195 0 256 -11 25 -50 81 -87 125 -404 479 -677 811 -819 998
l-67 88 0 1316 0 1316 43 -7 c271 -44 506 -32 784 39 75 20 139 37 141 40 2 2
-39 48 -91 102 l-96 99 -103 -18 c-360 -61 -740 38 -1026 270 -96 78 -198 254
-272 469 -23 65 -79 264 -126 443 -205 787 -331 1014 -614 1111 -46 16 -69 28
-65 36 22 60 37 187 32 283 -6 120 -30 198 -120 391 l-54 115 -13 189 -12 190
23 14 c51 32 137 129 164 186 38 79 46 214 20 311 -67 247 -319 380 -605 318z
m917 -9988 c-3 -185 -9 -268 -26 -359 -106 -590 -483 -1478 -902 -2122 -45
-69 -83 -124 -85 -123 -1 2 42 127 97 278 137 376 357 1034 424 1270 83 291
195 819 250 1186 l17 111 107 14 c90 12 107 12 115 1 4 -8 6 -123 3 -256z
m701 -2766 c-4 -860 -4 -865 -26 -937 -31 -101 -63 -171 -113 -245 -104 -153
-255 -273 -415 -329 -134 -46 -172 -49 -760 -49 l-555 0 6 48 c31 217 102 403
243 636 145 239 272 401 797 1021 360 426 603 723 740 908 l80 108 3 -148 c1
-81 1 -537 0 -1013z"/>
<path d="M29322 19571 c-64 -59 -141 -135 -171 -167 -30 -33 -232 -230 -450
-439 -302 -290 -397 -387 -399 -407 -4 -36 35 -64 300 -215 114 -65 208 -121
208 -125 0 -3 -45 -21 -100 -40 l-100 -33 49 -75 c57 -88 78 -109 188 -183
l82 -55 101 39 c56 22 136 49 178 60 42 10 88 27 102 37 59 44 309 516 311
587 0 22 6 54 12 70 7 19 121 135 287 293 151 144 279 273 284 287 6 16 6 32
-1 48 -13 28 -705 427 -741 427 -15 0 -63 -37 -140 -109z m110 -9 c-59 -70
-537 -540 -611 -601 -35 -28 -66 -50 -69 -47 -10 11 79 108 327 357 263 263
382 370 389 350 2 -6 -14 -33 -36 -59z"/>
<path d="M586 17951 c-14 -15 -17 -29 -12 -53 12 -59 55 -105 187 -198 71 -51
129 -93 129 -95 0 -1 -53 13 -117 32 -96 28 -131 33 -193 31 l-75 -3 -3 -62
-3 -62 47 -27 c25 -15 120 -52 211 -82 138 -45 162 -56 148 -66 -14 -10 -16
-26 -13 -84 3 -66 1 -72 -19 -81 -20 -9 -23 -18 -23 -70 0 -63 5 -69 64 -77
15 -2 63 -19 105 -38 42 -19 86 -37 99 -41 58 -17 118 48 93 102 -6 14 -10 27
-9 28 2 2 30 6 63 9 48 4 65 11 83 32 29 33 26 69 -9 161 l-24 63 22 21 22 22
138 -21 c76 -12 162 -22 190 -22 l53 0 -67 88 c-36 48 -77 100 -92 115 -30 33
-91 67 -121 67 -50 0 -406 106 -418 124 -8 14 -199 129 -281 171 -30 15 -77
29 -105 32 -43 4 -54 2 -70 -16z"/>
<path d="M16651 17841 c-49 -115 -74 -223 -75 -331 -1 -98 1 -109 30 -170 52
-109 146 -185 307 -250 88 -35 942 -317 1187 -391 220 -67 286 -82 343 -76 64
6 87 28 87 84 0 97 -78 189 -273 322 -122 83 -141 91 -267 111 -107 17 -221
55 -330 110 -117 59 -200 118 -351 247 -148 127 -217 180 -304 233 -71 44
-244 128 -302 148 -31 10 -31 10 -52 -37z"/>
<path d="M23561 16753 c-76 -153 -141 -288 -145 -299 -8 -25 12 -30 165 -40
l96 -7 12 89 c14 97 28 534 17 534 -3 0 -68 -125 -145 -277z"/>
<path d="M13635 16838 c-105 -117 -179 -253 -197 -362 -29 -173 63 -318 337
-529 72 -56 261 -202 420 -326 587 -456 683 -521 769 -521 62 0 81 29 80 122
0 57 -6 78 -37 140 -21 40 -76 126 -123 191 -79 108 -92 121 -162 161 -144 83
-197 120 -281 201 -111 107 -177 196 -300 409 -145 249 -267 406 -411 526
l-48 40 -47 -52z"/>
<path d="M23100 16035 c-5 -14 -11 -25 -13 -25 -2 0 -27 7 -55 15 -54 16 -72
14 -72 -10 0 -13 19 -20 103 -41 15 -3 30 -10 33 -15 7 -11 9 -12 -56 6 -55
15 -69 10 -70 -22 0 -15 -5 -16 -47 -4 l-33 9 -190 -381 c-153 -309 -354 -690
-416 -791 -10 -16 -54 -5 -572 135 l-561 152 -95 -82 c-241 -207 -323 -343
-314 -521 9 -175 98 -281 284 -334 l75 -22 -20 -26 c-12 -14 -21 -29 -21 -32
0 -15 -149 -212 -213 -281 -163 -177 -346 -292 -824 -517 -24 -11 -43 -26 -43
-33 0 -16 46 -73 91 -113 83 -73 224 -110 352 -92 143 21 283 85 512 237 83
54 155 102 161 106 6 3 -2 -30 -18 -75 -36 -102 -36 -181 -1 -186 30 -4 92 54
149 139 58 88 193 367 234 486 l32 93 57 -51 c87 -78 168 -113 269 -118 74 -3
89 0 138 24 70 34 146 108 214 210 65 96 254 481 418 850 177 398 274 609 442
951 82 169 150 308 150 309 0 2 -13 5 -30 9 -18 3 -30 12 -30 21 0 21 21 28
52 16 14 -5 29 -7 32 -3 6 5 -65 31 -87 32 -4 0 -12 -11 -17 -25z"/>
<path d="M15460 10075 l0 -935 1008 1 c858 1 996 3 935 14 -93 17 -162 40
-248 83 -101 50 -149 85 -243 176 -129 125 -214 274 -259 452 -27 108 -24 334
5 442 97 359 393 631 750 692 26 4 -402 8 -950 9 l-998 1 0 -935z"/>
<path d="M17740 10940 l0 -70 680 0 680 0 0 70 0 70 -680 0 -680 0 0 -70z"/>
<path d="M17740 9215 l0 -75 680 0 680 0 0 75 0 75 -680 0 -680 0 0 -75z"/>
</g>
</svg>
